<svg xmlns="http://www.w3.org/2000/svg" viewBox="0 0 48 24.08"><defs><style>.cls-1{fill:#00a2ff;}</style></defs><g id="Layer_2" data-name="Layer 2"><g id="Layer_1-2" data-name="Layer 1"><g id="BC"><g id="BC-2" data-name="BC"><path class="cls-1" d="M30,8.58h2.1c1.3,0,2.3.39,2.3,1.6a1.37,1.37,0,0,1-1.1,1.4h0c.9.19,1.5.69,1.5,1.5,0,1.29-1.1,1.89-2.5,1.89H30Zm2,2.69c.9,0,1.3-.3,1.3-1s-.4-.8-1.3-.8h-.8v1.8Zm.1,2.91c1,0,1.5-.4,1.5-1.1s-.5-1-1.5-1h-1v2.1Z"/><path class="cls-1" d="M38.6,8.38a3,3,0,0,1,1.9.8l-.6.7a1.66,1.66,0,0,0-1.2-.5c-1.1,0-1.8.89-1.8,2.4s.7,2.4,1.8,2.4a1.82,1.82,0,0,0,1.4-.6l.6.7a2.52,2.52,0,0,1-2,.9c-1.7,0-3-1.2-3-3.4S36.9,8.38,38.6,8.38Z"/><path class="cls-1" d="M47,20.08H25a1,1,0,0,1,0-2H46v-12H25a1,1,0,0,1-1-1,.94.94,0,0,1,1-1H47a.94.94,0,0,1,1,1v14A.94.94,0,0,1,47,20.08Z"/><path class="cls-1" d="M17,4.08a.76.76,0,0,1-.4-.1L12,2.17,7.4,4a1,1,0,0,1-1.3-.6.93.93,0,0,1,.6-1.3l5-2a.78.78,0,0,1,.7,0l5,2a1,1,0,0,1-.4,2Z"/><path class="cls-1" d="M23.4,12.18,22,11.47V5.08a.89.89,0,0,0-.3-.7l-1-1a1,1,0,0,0-1.4,1.4l.7.7v6.6a1,1,0,0,0,.6.89l1.4.7v.41H2v-.4L3.4,13a1,1,0,0,0,.6-.9V5.48l.7-.7a1,1,0,0,0-1.4-1.4l-1,1a.89.89,0,0,0-.3.7v6.39l-1.4.7a1,1,0,0,0-.6.91v2a.94.94,0,0,0,1,1H2.1c.5,4.7,4.5,8,9.9,8s9.4-3.3,9.9-8H23a.94.94,0,0,0,1-1v-2A1,1,0,0,0,23.4,12.18ZM12,22.08c-4.3,0-7.4-2.4-7.9-6H19.9C19.4,19.68,16.3,22.08,12,22.08Z"/></g></g></g></g></svg>