<svg xmlns="http://www.w3.org/2000/svg" viewBox="0 0 48 23.97"><defs><style>.cls-1{fill:#f68802;}.cls-2{fill:#191919;}</style></defs><g id="Layer_2" data-name="Layer 2"><g id="Layer_1-2" data-name="Layer 1"><g id="BC"><g id="OBC"><path class="cls-1" d="M26.3,11.67c0-2.1,1.2-3.4,2.9-3.4s2.9,1.2,2.9,3.4-1.2,3.4-2.9,3.4S26.3,13.77,26.3,11.67Zm4.6,0c0-1.5-.7-2.3-1.7-2.3s-1.7.9-1.7,2.3.7,2.4,1.7,2.4S30.9,13.17,30.9,11.67Z"/><path class="cls-1" d="M33.3,8.47h2.1c1.3,0,2.3.4,2.3,1.6a1.37,1.37,0,0,1-1.1,1.4h0c.9.2,1.5.7,1.5,1.5,0,1.3-1.1,1.9-2.5,1.9H33.3Zm2,2.7c.9,0,1.3-.3,1.3-1s-.4-.8-1.3-.8h-.8v1.8Zm.2,2.9c1,0,1.5-.4,1.5-1.1s-.5-1-1.5-1h-1v2.1Z"/><path class="cls-1" d="M41.9,8.27a3,3,0,0,1,1.9.81l-.6.69a1.66,1.66,0,0,0-1.2-.5c-1.1,0-1.8.91-1.8,2.41s.7,2.4,1.8,2.4a1.82,1.82,0,0,0,1.4-.6l.6.7a2.55,2.55,0,0,1-2,.9c-1.7,0-3-1.2-3-3.4A3,3,0,0,1,41.9,8.27Z"/><path class="cls-2" d="M47,20H25a1,1,0,0,1,0-2H46V6H25a.94.94,0,0,1-1-1,.94.94,0,0,1,1-1H47a.94.94,0,0,1,1,1V19A.94.94,0,0,1,47,20Z"/><path class="cls-1" d="M17,4a.76.76,0,0,1-.4-.1L12,2.07,7.4,4a1,1,0,0,1-1.3-.6.93.93,0,0,1,.6-1.3l5-2a.94.94,0,0,1,.7,0l5,2a1,1,0,0,1,.6,1.3A1.1,1.1,0,0,1,17,4Z"/><path class="cls-1" d="M17,8a.76.76,0,0,1-.4-.1L12,6.07,7.4,8a1,1,0,0,1-1.3-.6.93.93,0,0,1,.6-1.3l5-2a.85.85,0,0,1,.7,0l5,2a1,1,0,0,1,.6,1.3A1.1,1.1,0,0,1,17,8Z"/><path class="cls-1" d="M17,12a.76.76,0,0,1-.4-.1L12,10.07,7.4,12a1,1,0,0,1-1.3-.6.93.93,0,0,1,.6-1.3l5-2a.85.85,0,0,1,.7,0l5,2a1,1,0,0,1,.6,1.3A1.1,1.1,0,0,1,17,12Z"/><path class="cls-2" d="M23.4,12.07l-1.4-.7V5a.91.91,0,0,0-.3-.7l-1-1a1,1,0,1,0-1.4,1.4l.7.7V12a1,1,0,0,0,.6.9l1.4.7V14H2v-.4l1.4-.7A1,1,0,0,0,4,12V5.37l.7-.7a1,1,0,1,0-1.4-1.4l-1,1A.91.91,0,0,0,2,5v6.4l-1.4.7A1,1,0,0,0,0,13v2a.94.94,0,0,0,1,1H2.1c.5,4.7,4.5,8,9.9,8s9.4-3.3,9.9-8H23a.94.94,0,0,0,1-1V13A1,1,0,0,0,23.4,12.07ZM12,22c-4.3,0-7.4-2.4-7.9-6H19.9C19.4,19.57,16.3,22,12,22Z"/></g></g></g></g></svg>